<svg width="81" height="62" viewBox="0 0 81 62" fill="none" xmlns="http://www.w3.org/2000/svg">
<g clip-path="url(#clip0_134_64)">
<path d="M40.6001 24.2998C44.3001 24.2998 47.5001 25.9998 49.3001 28.5998L53.6001 26.1998C50.9001 22.2998 46.1001 19.7998 40.6001 19.7998C35.1001 19.7998 30.3001 22.3998 27.6001 26.1998L31.9001 28.5998C33.7001 26.0998 36.9001 24.2998 40.6001 24.2998Z" stroke="white" stroke-width="0.6" stroke-miterlimit="10"/>
<path d="M40.5999 24.2998C36.8999 24.2998 33.6999 25.9998 31.8999 28.5998L33.8999 29.6998C35.2999 27.6998 37.6999 26.3998 40.4999 26.3998C43.2999 26.3998 45.7999 27.6998 47.0999 29.6998L49.0999 28.5998C47.4999 26.0998 44.2999 24.2998 40.5999 24.2998Z" stroke="white" stroke-width="0.6" stroke-miterlimit="10"/>
<path d="M40.6001 4.7002C44.3001 4.7002 47.5001 6.40018 49.3001 9.00018L53.6001 6.60016C50.9001 2.70016 46.1001 0.200195 40.6001 0.200195C35.1001 0.200195 30.3001 2.80016 27.6001 6.60016L31.9001 9.00018C33.7001 6.40018 36.9001 4.7002 40.6001 4.7002Z" stroke="white" stroke-width="0.6" stroke-miterlimit="10"/>
<path d="M40.5999 4.7002C36.8999 4.7002 33.6999 6.40018 31.8999 9.00018L33.8999 10.1002C35.2999 8.10016 37.6999 6.80017 40.4999 6.80017C43.2999 6.80017 45.7999 8.10016 47.0999 10.1002L49.0999 9.00018C47.4999 6.40018 44.2999 4.7002 40.5999 4.7002Z" stroke="white" stroke-width="0.6" stroke-miterlimit="10"/>
<path d="M24.2 14.5C27.9 14.5 31.1 16.2 32.9 18.8L37.2 16.4C34.5 12.5 29.7 10 24.2 10C18.7 10 13.9 12.6 11.2 16.4L15.4999 18.8C17.2999 16.2 20.5 14.5 24.2 14.5Z" stroke="white" stroke-width="0.6" stroke-miterlimit="10"/>
<path d="M24.2 14.5C20.5 14.5 17.3 16.2 15.5 18.8L17.5 19.9C18.9 17.9 21.3 16.6 24.1 16.6C26.9 16.6 29.4 17.9 30.7 19.9L32.7 18.8C31.1 16.2 27.9 14.5 24.2 14.5Z" stroke="white" stroke-width="0.6" stroke-miterlimit="10"/>
<path d="M56.8999 14.5C60.5999 14.5 63.7999 16.2 65.5999 18.8L69.8999 16.4C67.1999 12.5 62.3999 10 56.8999 10C51.3999 10 46.5999 12.6 43.8999 16.4L48.1999 18.8C49.9999 16.2 53.1999 14.5 56.8999 14.5Z" stroke="white" stroke-width="0.6" stroke-miterlimit="10"/>
<path d="M56.9 14.5C53.2 14.5 50 16.2 48.2 18.8L50.2 19.9C51.6 17.9 53.9999 16.6 56.7999 16.6C59.5999 16.6 62.1 17.9 63.4 19.9L65.4 18.8C63.8 16.2 60.6 14.5 56.9 14.5Z" stroke="white" stroke-width="0.6" stroke-miterlimit="10"/>
</g>
<defs>
<clipPath id="clip0_134_64">
<rect width="81" height="62" fill="white"/>
</clipPath>
</defs>
</svg>
